<?xml version="1.0" encoding="UTF-8"?>
<svg version="1.1" xmlns="http://www.w3.org/2000/svg" width="1024" height="1024">
<path d="M0 0 C337.92 0 675.84 0 1024 0 C1024 337.92 1024 675.84 1024 1024 C686.08 1024 348.16 1024 0 1024 C0 686.08 0 348.16 0 0 Z " fill="#D3CFBC" transform="translate(0,0)"/>
<path d="M0 0 C3.64588444 -0.02718555 7.29156235 -0.04692858 10.9375 -0.0625 C11.95908203 -0.07087891 12.98066406 -0.07925781 14.03320312 -0.08789062 C20.1121997 -0.10731234 25.9726232 0.20179682 32 1 C32 6.28 32 11.56 32 17 C27.05 17.33 22.1 17.66 17 18 C17 37.14 17 56.28 17 76 C12.05 76 7.1 76 2 76 C2 85.57 2 95.14 2 105 C6.95 105 11.9 105 17 105 C16.67 123.15 16.34 141.3 16 160 C21.61 160 27.22 160 33 160 C32.85870653 164.18769789 32.71212981 168.37509861 32.5625 172.5625 C32.50352539 174.33463867 32.50352539 174.33463867 32.44335938 176.14257812 C32.40146484 177.29306641 32.35957031 178.44355469 32.31640625 179.62890625 C32.27974854 180.68150635 32.24309082 181.73410645 32.20532227 182.81860352 C31.98522029 186.22900643 31.48330721 189.61684954 31 193 C36.61 193 42.22 193 48 193 C48 197.62 48 202.24 48 207 C53.28 207.33 58.56 207.66 64 208 C64 213.61 64 219.22 64 225 C74.23 225 84.46 225 95 225 C95 230.28 95 235.56 95 241 C100.28 241 105.56 241 111 241 C111 246.61 111 252.22 111 258 C126.84 258 142.68 258 159 258 C159 252.39 159 246.78 159 241 C164.28 241 169.56 241 175 241 C175 235.39 175 229.78 175 224 C169.72 224 164.44 224 159 224 C159 218.72 159 213.44 159 208 C153.72 208 148.44 208 143 208 C142.97673847 203.71729467 142.95692134 199.43481838 142.94506836 195.15209961 C142.94011454 193.70254768 142.93334962 192.25300054 142.92456055 190.8034668 C142.86560281 180.81186528 143.23255645 170.96468046 144 161 C138.72 161 133.44 161 128 161 C128 155.72 128 150.44 128 145 C122.39 145 116.78 145 111 145 C111.33 97.15 111.66 49.3 112 0 C117.28 0 122.56 0 128 0 C128 10.89 128 21.78 128 33 C133.28 33 138.56 33 144 33 C144 37.95 144 42.9 144 48 C148.95 48 153.9 48 159 48 C159.19148936 69.53191489 159.19148936 69.53191489 158 80 C159.60681641 79.98259766 159.60681641 79.98259766 161.24609375 79.96484375 C162.64322743 79.95546701 164.04036299 79.94636669 165.4375 79.9375 C166.14455078 79.92912109 166.85160156 79.92074219 167.58007812 79.91210938 C169.38693559 79.90346412 171.19387603 79.94779989 173 80 C174 81 174 81 174.09765625 84.59765625 C174.09191272 86.08597255 174.07889891 87.57426296 174.0625 89.0625 C174.041875 91.681875 174.02125 94.30125 174 97 C179.28 97 184.56 97 190 97 C190 107.23 190 117.46 190 128 C206.5 128 223 128 240 128 C239.92101256 119.29430764 239.92101256 119.29430764 239.81982422 110.58886719 C239.81233154 108.95933105 239.81233154 108.95933105 239.8046875 107.296875 C239.79421387 106.18666992 239.78374023 105.07646484 239.77294922 103.93261719 C240 101 240 101 242 97 C245.63 97 249.26 97 253 97 C253 91.72 253 86.44 253 81 C258.28 81 263.56 81 269 81 C268.835 78.504375 268.67 76.00875 268.5 73.4375 C267.99098086 65.27407562 267.92059814 57.17839172 268 49 C275.92 48.505 275.92 48.505 284 48 C284 42.72 284 37.44 284 32 C289.28 32.33 294.56 32.66 300 33 C300 22.11 300 11.22 300 0 C305.61 0 311.22 0 317 0 C317 47.52 317 95.04 317 144 C303 145 303 145 300 144 C300 149.61 300 155.22 300 161 C295.05 161 290.1 161 285 161 C285 176.51 285 192.02 285 208 C279.39 208 273.78 208 268 208 C268.33 213.28 268.66 218.56 269 224 C263.39 224 257.78 224 252 224 C252 229.61 252 235.22 252 241 C257.28 241 262.56 241 268 241 C268 246.28 268 251.56 268 257 C270.01335449 256.99214478 270.01335449 256.99214478 272.06738281 256.98413086 C277.04703098 256.96603136 282.02667623 256.95454984 287.00634766 256.94506836 C289.16162607 256.94003948 291.31690107 256.93321558 293.47216797 256.92456055 C296.56999554 256.91243179 299.66777801 256.90675722 302.765625 256.90234375 C303.72929993 256.89718246 304.69297485 256.89202118 305.68585205 256.88670349 C306.58648376 256.88662796 307.48711548 256.88655243 308.41503906 256.88647461 C309.20557678 256.884254 309.9961145 256.88203339 310.81060791 256.87974548 C313 257 313 257 317 258 C317 252.39 317 246.78 317 241 C322.28 241 327.56 241 333 241 C333 235.39 333 229.78 333 224 C336.45838775 223.97274476 339.91655545 223.95303858 343.375 223.9375 C344.34050781 223.92912109 345.30601562 223.92074219 346.30078125 223.91210938 C352.61009419 223.89093718 358.73195476 224.27235672 365 225 C365 219.39 365 213.78 365 208 C370.61 208 376.22 208 382 208 C382 202.72 382 197.44 382 192 C387.28 192 392.56 192 398 192 C398 181.77 398 171.54 398 161 C403.28 161 408.56 161 414 161 C414 145.16 414 129.32 414 113 C419.28 113 424.56 113 430 113 C430 102.44 430 91.88 430 81 C424.39 81 418.78 81 413 81 C413 59.88 413 38.76 413 17 C407.72 17 402.44 17 397 17 C397 11.39 397 5.78 397 0 C407.23 0 417.46 0 428 0 C428 5.61 428 11.22 428 17 C438.23 17 448.46 17 459 17 C459 21.95 459 26.9 459 32 C469.56 32 480.12 32 491 32 C490.67 37.28 490.34 42.56 490 48 C492.96223958 47.96744792 495.92447917 47.93489583 498.88671875 47.90234375 C502 48 502 48 507 49 C506.67 53.95 506.34 58.9 506 64 C516.56 64 527.12 64 538 64 C537.67 69.61 537.34 75.22 537 81 C542.61 81 548.22 81 554 81 C554.125 93.625 554.125 93.625 553 97 C558.28 97 563.56 97 569 97 C569 102.28 569 107.56 569 113 C574.61 113 580.22 113 586 113 C585.67 117.95 585.34 122.9 585 128 C590.61 128 596.22 128 602 128 C602.0309375 131.650625 602.0309375 131.650625 602.0625 135.375 C602.071604 136.13989746 602.08070801 136.90479492 602.09008789 137.69287109 C602.11111111 142.77777778 602.11111111 142.77777778 601 145 C606.61 145 612.22 145 618 145 C618.10206206 155.7391963 618.00711862 166.29936463 617 177 C622.61 177 628.22 177 634 177 C634.125 189.75 634.125 189.75 633 192 C638.61 192 644.22 192 650 192 C650.09593146 202.74432379 649.76553409 213.28252277 649 224 C654.61 224 660.22 224 666 224 C665.67 234.56 665.34 245.12 665 256 C670.61 256 676.22 256 682 256 C682 291.97 682 327.94 682 365 C676.39 365 670.78 365 665 365 C665 345.2 665 325.4 665 305 C659.72 305 654.44 305 649 305 C649 299.39 649 293.78 649 288 C644.05 288.33 639.1 288.66 634 289 C634 283.72 634 278.44 634 273 C628.72 273 623.44 273 618 273 C618 267.72 618 262.44 618 257 C607.11 257 596.22 257 585 257 C585.33 262.28 585.66 267.56 586 273 C580.39 273 574.78 273 569 273 C569.33 277.95 569.66 282.9 570 288 C564.39 288 558.78 288 553 288 C553.33 293.28 553.66 298.56 554 304 C548.72 304 543.44 304 538 304 C538 333.37 538 362.74 538 393 C533.05 393 528.1 393 523 393 C521.91309686 384.30477491 521.90235364 375.74477436 522 367 C520.60974609 367.01740234 520.60974609 367.01740234 519.19140625 367.03515625 C517.39509766 367.04869141 517.39509766 367.04869141 515.5625 367.0625 C514.36753906 367.07410156 513.17257812 367.08570313 511.94140625 367.09765625 C509 367 509 367 508 366 C508 361.38 508 356.76 508 352 C492.49 352 476.98 352 461 352 C461 358.93 461 365.86 461 373 C455.72 373 450.44 373 445 373 C445 378.94 445 384.88 445 391 C439.72 391 434.44 391 429 391 C429 409.81 429 428.62 429 448 C424.05 448.33 419.1 448.66 414 449 C414 443.72 414 438.44 414 433 C402.78 433 391.56 433 380 433 C380 438.28 380 443.56 380 449 C374.72 449 369.44 449 364 449 C364 454.28 364 459.56 364 465 C358.72 465 353.44 465 348 465 C348 475.23 348 485.46 348 496 C342.39 496 336.78 496 331 496 C331 501.61 331 507.22 331 513 C320.77 513 310.54 513 300 513 C300 517.95 300 522.9 300 528 C294.72 528 289.44 528 284 528 C284 533.94 284 539.88 284 546 C279.38 546 274.76 546 270 546 C270 550.62 270 555.24 270 560 C264.72 560 259.44 560 254 560 C253.34 570.23 252.68 580.46 252 591 C246.83608171 592.7213061 241.40708764 592.05353552 236 592 C236 597.61 236 603.22 236 609 C230 610 230 610 221 610 C221 624.52 221 639.04 221 654 C215.72 654 210.44 654 205 654 C204.81548975 622.51025057 204.81548975 622.51025057 206 608 C200.72 608 195.44 608 190 608 C189.67 601.4 189.34 594.8 189 588 C184.38 588 179.76 588 175 588 C175 578.76 175 569.52 175 560 C169.72 560 164.44 560 159 560 C159 554.72 159 549.44 159 544 C154.05 544 149.1 544 144 544 C144 538.72 144 533.44 144 528 C138.39 528 132.78 528 127 528 C127 523.05 127 518.1 127 513 C116.77 513 106.54 513 96 513 C96 507.39 96 501.78 96 496 C90.72 496 85.44 496 80 496 C79.97703134 492.06725469 79.95712174 488.13468055 79.94506836 484.2019043 C79.93757271 482.20685232 79.92486655 480.21182214 79.91210938 478.21679688 C79.90727539 476.33637695 79.90727539 476.33637695 79.90234375 474.41796875 C79.89448853 472.68196411 79.89448853 472.68196411 79.88647461 470.91088867 C80 468 80 468 81 465 C75.39 465.33 69.78 465.66 64 466 C64 460.39 64 454.78 64 449 C58.72 449 53.44 449 48 449 C48 443.72 48 438.44 48 433 C37.44 433 26.88 433 16 433 C16 438.94 16 444.88 16 451 C10.72 451 5.44 451 0 451 C0 428.89 0 406.78 0 384 C-5.28 384 -10.56 384 -16 384 C-16 378.06 -16 372.12 -16 366 C-16.66 366.33 -17.32 366.66 -18 367 C-20.01896864 367.0962762 -22.0412429 367.12981825 -24.0625 367.125 C-25.14660156 367.12757813 -26.23070312 367.13015625 -27.34765625 367.1328125 C-30 367 -30 367 -31 366 C-31.33 361.38 -31.66 356.76 -32 352 C-48.5 352 -65 352 -82 352 C-82 357.61 -82 363.22 -82 369 C-86.95 368.67 -91.9 368.34 -97 368 C-96.979375 369.711875 -96.95875 371.42375 -96.9375 373.1875 C-96.9295759 379.83581905 -97.42419904 386.37828898 -98 393 C-102.62 393 -107.24 393 -112 393 C-112.77865495 387.4949018 -113.14787327 382.17660686 -113.1328125 376.62109375 C-113.13413177 375.8271521 -113.13545105 375.03321045 -113.1368103 374.21520996 C-113.13872392 371.62260021 -113.1323803 369.03009881 -113.125 366.4375 C-113.12367065 365.10563156 -113.12367065 365.10563156 -113.12231445 363.74685669 C-113.09954593 344.15520103 -112.60415706 324.58116185 -112 305 C-116.95 305 -121.9 305 -127 305 C-127 299.72 -127 294.44 -127 289 C-131.95 289 -136.9 289 -142 289 C-142 283.39 -142 277.78 -142 272 C-144.31 272.33 -146.62 272.66 -149 273 C-151.64 273 -154.28 273 -157 273 C-157 267.72 -157 262.44 -157 257 C-170.53 257 -184.06 257 -198 257 C-197.67 262.28 -197.34 267.56 -197 273 C-202.61 273 -208.22 273 -214 273 C-213.505 280.425 -213.505 280.425 -213 288 C-218.28 288 -223.56 288 -229 288 C-229 293.61 -229 299.22 -229 305 C-233.29 305 -237.58 305 -242 305 C-241.99214478 306.97238647 -241.99214478 306.97238647 -241.98413086 308.98461914 C-241.96582638 313.93285421 -241.95447641 318.88108639 -241.94506836 323.8293457 C-241.94008564 325.95793158 -241.93329705 328.08651411 -241.92456055 330.21508789 C-241.87665542 342.19982417 -242.01280735 354.05263694 -243 366 C-248.28 366 -253.56 366 -259 366 C-259 330.03 -259 294.06 -259 257 C-253.72 257 -248.44 257 -243 257 C-243 246.11 -243 235.22 -243 224 C-238.05 224 -233.1 224 -228 224 C-228 218.72 -228 213.44 -228 208 C-215.25 207.875 -215.25 207.875 -213 209 C-213.10828125 208.04867187 -213.10828125 208.04867187 -213.21875 207.078125 C-214.21560581 197.05418605 -214.08949281 187.06296918 -214 177 C-208.72 177 -203.44 177 -198 177 C-198 171.72 -198 166.44 -198 161 C-193.05 161 -188.1 161 -183 161 C-183 155.39 -183 149.78 -183 144 C-178.71 144 -174.42 144 -170 144 C-170 139.05 -170 134.1 -170 129 C-166.37 128.67 -162.74 128.34 -159 128 C-158.67 123.05 -158.34 118.1 -158 113 C-152.39 113 -146.78 113 -141 113 C-141 107.72 -141 102.44 -141 97 C-136.05 96.67 -131.1 96.34 -126 96 C-126 91.05 -126 86.1 -126 81 C-116.43 81 -106.86 81 -97 81 C-97.33 75.72 -97.66 70.44 -98 65 C-92.39 65 -86.78 65 -81 65 C-81 59.72 -81 54.44 -81 49 C-75.06 49 -69.12 49 -63 49 C-63 43.72 -63 38.44 -63 33 C-52.77 33 -42.54 33 -32 33 C-32 27.72 -32 22.44 -32 17 C-21.44 17 -10.88 17 0 17 C0 11.39 0 5.78 0 0 Z " fill="#1F1921" transform="translate(295,192)"/>
<path d="M0 0 C6.93 0.495 6.93 0.495 14 1 C14 5.29 14 9.58 14 14 C18.29 14 22.58 14 27 14 C27 18.29 27 22.58 27 27 C22.71 27 18.42 27 14 27 C13.67 23.04 13.34 19.08 13 15 C11.040625 14.855625 9.08125 14.71125 7.0625 14.5625 C1.125 14.125 1.125 14.125 0 13 C-0.14393457 8.66469082 -0.04212061 4.33842269 0 0 Z " fill="#262327" transform="translate(940,449)"/>
<path d="M0 0 C5.61 0 11.22 0 17 0 C17 5.28 17 10.56 17 16 C11.39 16 5.78 16 0 16 C0 10.72 0 5.44 0 0 Z " fill="#D8DACC" transform="translate(469,369)"/>
<path d="M0 0 C5.28 0 10.56 0 16 0 C16 5.28 16 10.56 16 16 C10.72 16 5.44 16 0 16 C0 10.72 0 5.44 0 0 Z " fill="#D7D8C6" transform="translate(532,369)"/>
<path d="M0 0 C4.62 0 9.24 0 14 0 C14 4.29 14 8.58 14 13 C9.38 13 4.76 13 0 13 C0 8.71 0 4.42 0 0 Z " fill="#272428" transform="translate(688,556)"/>
<path d="M0 0 C4.29 0 8.58 0 13 0 C13 4.29 13 8.58 13 13 C8.71 13 4.42 13 0 13 C0 8.71 0 4.42 0 0 Z " fill="#262327" transform="translate(719,221)"/>
<path d="M0 0 C5.28 0 10.56 0 16 0 C16 19.8 16 39.6 16 60 C15.67 60 15.34 60 15 60 C14.67 50.76 14.34 41.52 14 32 C13.67 32 13.34 32 13 32 C13.00523682 31.26362305 13.01047363 30.52724609 13.01586914 29.76855469 C13.03666867 26.42904515 13.04966968 23.08954926 13.0625 19.75 C13.07087891 18.59113281 13.07925781 17.43226563 13.08789062 16.23828125 C13.09111328 15.12324219 13.09433594 14.00820312 13.09765625 12.859375 C13.10289307 11.83295898 13.10812988 10.80654297 13.11352539 9.74902344 C13.01293019 7.31310519 12.65465582 5.33126078 12 3 C12 2.34 12 1.68 12 1 C8.04 1 4.08 1 0 1 C0 0.67 0 0.34 0 0 Z " fill="#E6E4DA" transform="translate(692,209)"/>
<path d="M0 0 C5.28 0 10.56 0 16 0 C16 0.33 16 0.66 16 1 C9.565 1.495 9.565 1.495 3 2 C3.020625 4.0625 3.04125 6.125 3.0625 8.25 C3.12506635 14.50663482 3.12506635 14.50663482 2.43359375 17.234375 C1.77848364 19.22437387 1.77848364 19.22437387 3 22 C2.835 23.258125 2.67 24.51625 2.5 25.8125 C1.66012864 32.23379497 2.40646106 38.58064807 3 45 C2.01 45.66 1.02 46.32 0 47 C-0.16773003 40.94954802 -0.32827792 34.89896413 -0.48217773 28.84814453 C-0.5355416 26.78982416 -0.5908665 24.73155365 -0.64819336 22.67333984 C-0.73026087 19.7146276 -0.80527057 16.75580762 -0.87890625 13.796875 C-0.90594131 12.87694763 -0.93297638 11.95702026 -0.96083069 11.00921631 C-0.99097511 9.71833099 -0.99097511 9.71833099 -1.02172852 8.40136719 C-1.04171402 7.64635925 -1.06169952 6.89135132 -1.08229065 6.11346436 C-1 4 -1 4 0 0 Z " fill="#DDDEDA" transform="translate(580,353)"/>
<path d="M0 0 C2.31 0 4.62 0 7 0 C6.01 0.33 5.02 0.66 4 1 C4.185625 2.093125 4.37125 3.18625 4.5625 4.3125 C5 8 5 8 4 11 C3.96986762 14.62019052 4.06678759 18.22868701 4.16015625 21.84765625 C4 25 4 25 2 27 C1.30251417 28.31747324 0.63040043 29.64914193 0 31 C-0.96232804 27.76277434 -1.12887438 24.83559383 -1.1328125 21.46484375 C-1.13410156 20.40845703 -1.13539063 19.35207031 -1.13671875 18.26367188 C-1.13285156 17.16603516 -1.12898437 16.06839844 -1.125 14.9375 C-1.12886719 13.83599609 -1.13273438 12.73449219 -1.13671875 11.59960938 C-1.13542969 10.54451172 -1.13414062 9.48941406 -1.1328125 8.40234375 C-1.13168457 7.43804443 -1.13055664 6.47374512 -1.12939453 5.48022461 C-1 3 -1 3 0 0 Z " fill="#D6DADB" transform="translate(643,657)"/>
<path d="M0 0 C5.94 0 11.88 0 18 0 C18 4.95 18 9.9 18 15 C23.28 15.33 28.56 15.66 34 16 C34.05376941 19.29188269 34.09356106 22.58289426 34.125 25.875 C34.14175781 26.81214844 34.15851563 27.74929688 34.17578125 28.71484375 C34.18544922 30.05869141 34.18544922 30.05869141 34.1953125 31.4296875 C34.21102295 32.67081299 34.21102295 32.67081299 34.22705078 33.93701172 C34 36 34 36 32 38 C31.01 37.01 30.02 36.02 29 35 C30.485 34.505 30.485 34.505 32 34 C32 28.39 32 22.78 32 17 C26.72 17 21.44 17 16 17 C16 11.72 16 6.44 16 1 C10.72 1 5.44 1 0 1 C0 0.67 0 0.34 0 0 Z " fill="#181216" transform="translate(438,399)"/>
<path d="M0 0 C0.33 0 0.66 0 1 0 C1 5.61 1 11.22 1 17 C-9.56 16.67 -20.12 16.34 -31 16 C-31 21.61 -31 27.22 -31 33 C-36.94 33 -42.88 33 -49 33 C-49 32.67 -49 32.34 -49 32 C-43.39 32 -37.78 32 -32 32 C-32 26.39 -32 20.78 -32 15 C-28.34669232 14.08667308 -25.68014465 13.89682567 -21.95703125 13.9375 C-20.80138672 13.94523437 -19.64574219 13.95296875 -18.45507812 13.9609375 C-17.25302734 13.97382813 -16.05097656 13.98671875 -14.8125 14 C-12.42322103 14.02537737 -10.03389112 14.04645505 -7.64453125 14.0625 C-6.58596924 14.07410156 -5.52740723 14.08570313 -4.43676758 14.09765625 C-2.05189313 14.27796788 -2.05189313 14.27796788 -1 13 C-0.92760255 10.76925356 -1.00350207 8.55507809 -1.0625 6.32421875 C-1.00156103 4.05805083 -0.63512433 2.16835415 0 0 Z " fill="#EAEADE" transform="translate(659,400)"/>
<path d="M0 0 C2.30571396 8.56408042 2.30571396 8.56408042 1.52954102 12.2097168 C0.86307776 15.72147732 0.87595628 19.14853356 0.90234375 22.70703125 C0.9037587 23.43242599 0.90517365 24.15782074 0.90663147 24.90519714 C0.91220069 27.2076745 0.92474739 29.51005235 0.9375 31.8125 C0.94251898 33.37955588 0.94708119 34.9466133 0.95117188 36.51367188 C0.96216002 40.34248589 0.97940327 44.17122611 1 48 C2.32 48.66 3.64 49.32 5 50 C4.01 51.32 3.02 52.64 2 54 C1.67 53.67 1.34 53.34 1 53 C-1.33297433 52.95907063 -3.66705225 52.95758277 -6 53 C-6 52.67 -6 52.34 -6 52 C-3.525 51.505 -3.525 51.505 -1 51 C-1.00222061 50.3758168 -1.00444122 49.75163361 -1.00672913 49.10853577 C-1.0287808 42.63657196 -1.0439061 36.16461875 -1.05493164 29.69262695 C-1.05997349 27.27432828 -1.06680678 24.85603267 -1.07543945 22.43774414 C-1.08751157 18.97020717 -1.09322963 15.50271034 -1.09765625 12.03515625 C-1.10281754 10.94662857 -1.10797882 9.85810089 -1.11329651 8.73658752 C-1.11337204 7.73562546 -1.11344757 6.73466339 -1.11352539 5.70336914 C-1.115746 4.81734512 -1.11796661 3.93132111 -1.12025452 3.01844788 C-1 1 -1 1 0 0 Z " fill="#D7D6D3" transform="translate(977,505)"/>
<path d="M0 0 C4.62 0 9.24 0 14 0 C14.18375284 19.68197058 13.61421645 39.33037167 13 59 C12.67 59 12.34 59 12 59 C12 40.19 12 21.38 12 2 C8.04 1.67 4.08 1.34 0 1 C0 0.67 0 0.34 0 0 Z " fill="#DFDAD0" transform="translate(946,497)"/>
<path d="M0 0 C0.33 0 0.66 0 1 0 C1 5.61 1 11.22 1 17 C-4.28 17 -9.56 17 -15 17 C-15 22.28 -15 27.56 -15 33 C-24.9 33 -34.8 33 -45 33 C-45 32.67 -45 32.34 -45 32 C-36.09 32 -27.18 32 -18 32 C-17.71084731 27.10881223 -17.71084731 27.10881223 -17.43188477 22.21704102 C-17.11111111 17.11111111 -17.11111111 17.11111111 -16 16 C-13.30345146 15.92680379 -10.63308542 15.90757463 -7.9375 15.9375 C-6.79958008 15.94426758 -6.79958008 15.94426758 -5.63867188 15.95117188 C-3.75908129 15.9629932 -1.87953101 15.98092922 0 16 C-0.08378906 14.92878906 -0.16757812 13.85757812 -0.25390625 12.75390625 C-0.35704896 11.35679134 -0.45989843 9.95965476 -0.5625 8.5625 C-0.64661133 7.50192383 -0.64661133 7.50192383 -0.73242188 6.41992188 C-0.86190993 4.61572163 -0.93521608 2.80768048 -1 1 C-0.67 0.67 -0.34 0.34 0 0 Z " fill="#ECEEE1" transform="translate(469,416)"/>
<path d="M0 0 C8.91 0 17.82 0 27 0 C27 0.33 27 0.66 27 1 C18.75 1 10.5 1 2 1 C2 6.61 2 12.22 2 18 C-9.04824923 18.10831617 -19.97539847 17.70719093 -31 17 C-31 16.67 -31 16.34 -31 16 C-20.44 15.67 -9.88 15.34 1 15 C0.67 10.05 0.34 5.1 0 0 Z " fill="#E5E5D8" transform="translate(293,191)"/>
<path d="M0 0 C0.33 0 0.66 0 1 0 C1 6.6 1 13.2 1 20 C-4.28 20 -9.56 20 -15 20 C-15 25.28 -15 30.56 -15 36 C-20.61 36 -26.22 36 -32 36 C-32 35.67 -32 35.34 -32 35 C-31.07316406 34.93941406 -30.14632812 34.87882812 -29.19140625 34.81640625 C-27.99386719 34.73261719 -26.79632812 34.64882813 -25.5625 34.5625 C-24.36753906 34.48128906 -23.17257812 34.40007812 -21.94140625 34.31640625 C-19.11429756 34.32343886 -19.11429756 34.32343886 -18 33 C-17.79068103 30.83703727 -17.63202931 28.6690529 -17.5 26.5 C-17.11111111 20.11111111 -17.11111111 20.11111111 -16 19 C-12.93113383 18.71525984 -9.86224703 18.55128201 -6.78515625 18.37890625 C-3.86415567 18.2677106 -3.86415567 18.2677106 -2 16 C-2 16.99 -2 17.98 -2 19 C-1.34 19 -0.68 19 0 19 C0 12.73 0 6.46 0 0 Z " fill="#D7D5CB" transform="translate(692,364)"/>
<path d="M0 0 C0.33 0 0.66 0 1 0 C1 7.59 1 15.18 1 23 C5.89153471 22.9604321 5.89153471 22.9604321 10.78295898 22.90991211 C12.52221717 22.90275087 14.26145304 22.94975298 16 23 C17 24 17 24 17.09765625 26.72265625 C17.08605469 27.82480469 17.07445312 28.92695313 17.0625 30.0625 C17.05347656 31.16722656 17.04445313 32.27195312 17.03515625 33.41015625 C17.02355469 34.26480469 17.01195312 35.11945313 17 36 C16.67 36 16.34 36 16 36 C16 32.7 16 29.4 16 26 C10.39 26 4.78 26 -1 26 C-0.67 17.42 -0.34 8.84 0 0 Z " fill="#C8C6BC" transform="translate(327,359)"/>
<path d="M0 0 C5.90819071 -0.04945048 11.81626084 -0.08574364 17.72460938 -0.10986328 C19.73439635 -0.1199187 21.7441687 -0.13356485 23.75390625 -0.15087891 C26.64326588 -0.17514724 29.53243202 -0.18648771 32.421875 -0.1953125 C33.31992859 -0.20563507 34.21798218 -0.21595764 35.14324951 -0.22659302 C35.98381897 -0.22674408 36.82438843 -0.22689514 37.69042969 -0.22705078 C38.42767273 -0.231492 39.16491577 -0.23593323 39.92449951 -0.24050903 C42.30519726 0.03536626 43.93016431 0.82098568 46 2 C12.86717075 3.95394192 12.86717075 3.95394192 0 1 C0 0.67 0 0.34 0 0 Z " fill="#161618" transform="translate(566,449)"/>
<path d="M0 0 C4.95 0 9.9 0 15 0 C15.0506665 10.49429789 14.87014161 20.95056853 14.5 31.4375 C14.45159165 32.86262237 14.40341366 34.28775259 14.35546875 35.71289062 C14.23961786 39.14202105 14.12070875 42.57103671 14 46 C11.35896134 42.03844201 11.84753827 38.75182976 12.0234375 34.17578125 C12.04846344 33.31438034 12.07348938 32.45297943 12.09927368 31.56547546 C12.18144859 28.81408183 12.27804745 26.06340871 12.375 23.3125 C12.43324215 21.44729506 12.49054538 19.58206055 12.546875 17.71679688 C12.68702364 13.14411681 12.84011006 8.57203064 13 4 C10.25778934 3.08592978 7.64475482 2.48923795 4.8125 1.9375 C3.91144531 1.76089844 3.01039063 1.58429688 2.08203125 1.40234375 C1.39496094 1.26957031 0.70789063 1.13679688 0 1 C0 0.67 0 0.34 0 0 Z " fill="#E7E5DF" transform="translate(424,353)"/>
<path d="M0 0 C0.33 0 0.66 0 1 0 C1 6.93 1 13.86 1 21 C6.61 21 12.22 21 18 21 C18 25.95 18 30.9 18 36 C17.67 36 17.34 36 17 36 C16.67 33.03 16.34 30.06 16 27 C13.525 26.01 13.525 26.01 11 25 C11 24.34 11 23.68 11 23 C9.54176788 22.9729957 8.08339325 22.95360213 6.625 22.9375 C5.40683594 22.92009766 5.40683594 22.92009766 4.1640625 22.90234375 C1.95062858 22.85533666 1.95062858 22.85533666 0 24 C-1.28162626 15.88303369 -0.6976874 8.14684214 0 0 Z " fill="#E7E5DB" transform="translate(405,316)"/>
<path d="M0 0 C0.33 0.99 0.66 1.98 1 3 C3.00016466 4.20882096 3.00016466 4.20882096 5 5 C4 8 4 8 1.9375 9.1875 C1.298125 9.455625 0.65875 9.72375 0 10 C0.33 11.65 0.66 13.3 1 15 C3.31 15 5.62 15 8 15 C8.33 15.66 8.66 16.32 9 17 C5.37 17 1.74 17 -2 17 C-2 11.72 -2 6.44 -2 1 C-7.61 1 -13.22 1 -19 1 C-19 0.67 -19 0.34 -19 0 C-12.5510809 -1.31909709 -6.51244208 -0.69508823 0 0 Z " fill="#E2DFD2" transform="translate(899,319)"/>
<path d="M0 0 C9.57 0 19.14 0 29 0 C29 0.33 29 0.66 29 1 C20.42 1.33 11.84 1.66 3 2 C1.71704177 6.44464865 1.71704177 6.44464865 2 13 C7.28 13.33 12.56 13.66 18 14 C17.67 15.65 17.34 17.3 17 19 C16.67 17.68 16.34 16.36 16 15 C7.585 15.495 7.585 15.495 -1 16 C-0.67 10.72 -0.34 5.44 0 0 Z " fill="#080411" transform="translate(693,193)"/>
<path d="M0 0 C2.97 0.495 2.97 0.495 6 1 C5.01 1.33 4.02 1.66 3 2 C1.72449628 6.86266263 1.90837564 11.62161287 1.97265625 16.60546875 C1.98529292 18.49413886 1.99765457 20.38281082 2.00976562 22.27148438 C2.03466866 25.24086315 2.06275315 28.21014525 2.09594727 31.17944336 C2.1260306 34.050625 2.14387891 36.92168046 2.16015625 39.79296875 C2.18034569 41.13200508 2.18034569 41.13200508 2.20094299 42.49809265 C2.20432175 43.32267471 2.2077005 44.14725677 2.21118164 44.99682617 C2.21863907 45.72342941 2.2260965 46.45003265 2.23377991 47.19865417 C2 49 2 49 0 51 C0 34.17 0 17.34 0 0 Z " fill="#05040C" transform="translate(407,192)"/>
<path d="M0 0 C2.31 0 4.62 0 7 0 C6.25943359 0.59554687 6.25943359 0.59554687 5.50390625 1.203125 C3.53663671 3.55362887 3.74550965 4.73434667 3.9375 7.75 C4.09128229 12.30997908 3.4935118 15.70615357 2 20 C1.34 19.67 0.68 19.34 0 19 C0 12.73 0 6.46 0 0 Z " fill="#D3D7DC" transform="translate(579,720)"/>
<path d="M0 0 C4.62 0 9.24 0 14 0 C14 0.33 14 0.66 14 1 C11.03 1 8.06 1 5 1 C5.04125 2.0725 5.0825 3.145 5.125 4.25 C4.9445512 9.66346398 3.80760482 11.19239518 0 15 C0 10.05 0 5.1 0 0 Z " fill="#D8D4CE" transform="translate(659,641)"/>
<path d="M0 0 C0.33 0 0.66 0 1 0 C1 9.9 1 19.8 1 30 C0.67 30 0.34 30 0 30 C-1.77410051 24.68468311 -2.2577668 20.14381195 -2.125 14.5625 C-2.11597656 13.83095703 -2.10695313 13.09941406 -2.09765625 12.34570312 C-2.07436153 10.56365702 -2.0385019 8.78178241 -2 7 C-1.34 7 -0.68 7 0 7 C0 4.69 0 2.38 0 0 Z " fill="#445261" transform="translate(579,368)"/>
<path d="M0 0 C9.9 0 19.8 0 30 0 C30 5.28 30 10.56 30 16 C29.67 16 29.34 16 29 16 C28.93941406 15.38511719 28.87882812 14.77023437 28.81640625 14.13671875 C28.69072266 12.92435547 28.69072266 12.92435547 28.5625 11.6875 C28.48128906 10.88699219 28.40007812 10.08648438 28.31640625 9.26171875 C28.04734307 6.83912821 28.04734307 6.83912821 27 4 C27.33 3.34 27.66 2.68 28 2 C24.27098186 1.91263264 20.54222835 1.85948518 16.8125 1.8125 C15.75740234 1.78736328 14.70230469 1.76222656 13.61523438 1.73632812 C12.59365234 1.72666016 11.57207031 1.71699219 10.51953125 1.70703125 C9.58214111 1.6913208 8.64475098 1.67561035 7.67895508 1.65942383 C4.50673189 2.06270929 2.61264246 3.20367882 0 5 C0 3.35 0 1.7 0 0 Z " fill="#E1DFD9" transform="translate(312,625)"/>
<path d="M0 0 C0.33 0 0.66 0 1 0 C1.04898438 1.27617188 1.09796875 2.55234375 1.1484375 3.8671875 C1.22346191 5.53648072 1.29900988 7.20575046 1.375 8.875 C1.4059375 9.71675781 1.436875 10.55851563 1.46875 11.42578125 C1.50742187 12.23144531 1.54609375 13.03710938 1.5859375 13.8671875 C1.6173584 14.61081543 1.6487793 15.35444336 1.68115234 16.12060547 C1.85419551 18.24010974 1.85419551 18.24010974 4 20 C6.66242821 20.46290221 6.66242821 20.46290221 9.625 20.625 C12.285625 20.810625 12.285625 20.810625 15 21 C14.67 15.72 14.34 10.44 14 5 C14.99 5 15.98 5 17 5 C16.67 10.61 16.34 16.22 16 22 C10.72 22 5.44 22 0 22 C0 14.74 0 7.48 0 0 Z " fill="#393434" transform="translate(36,536)"/>
<path d="M0 0 C0 0.33 0 0.66 0 1 C-5.61 1 -11.22 1 -17 1 C-17 11.89 -17 22.78 -17 34 C-18.98 34 -20.96 34 -23 34 C-22.35256836 33.65090576 -21.70513672 33.30181152 -21.03808594 32.94213867 C-18.68918585 31.09078571 -18.68918585 31.09078571 -18.45410156 27.8137207 C-18.4331543 26.53070068 -18.41220703 25.24768066 -18.390625 23.92578125 C-18.37408875 23.2419487 -18.35755249 22.55811615 -18.34051514 21.8535614 C-18.2919968 19.67311664 -18.27065809 17.4933693 -18.25 15.3125 C-18.22184315 13.83264713 -18.1919161 12.3528268 -18.16015625 10.87304688 C-18.08624013 7.24885017 -18.03668748 3.62478626 -18 0 C-15.75067773 -0.1954625 -13.50049858 -0.38108226 -11.25 -0.5625 C-9.99703125 -0.66691406 -8.7440625 -0.77132812 -7.453125 -0.87890625 C-4.60547636 -0.97876723 -2.65713933 -0.90584295 0 0 Z " fill="#E6E5DC" transform="translate(612,191)"/>
<path d="M0 0 C2.31 0 4.62 0 7 0 C7 5.61 7 11.22 7 17 C12.61 17 18.22 17 24 17 C24 17.33 24 17.66 24 18 C22.80761719 18.04898438 21.61523438 18.09796875 20.38671875 18.1484375 C18.82028932 18.22347604 17.25388421 18.2990234 15.6875 18.375 C14.90181641 18.4059375 14.11613281 18.436875 13.30664062 18.46875 C12.54931641 18.50742187 11.79199219 18.54609375 11.01171875 18.5859375 C10.31522217 18.6173584 9.61872559 18.6487793 8.90112305 18.68115234 C6.67467261 18.92118253 6.67467261 18.92118253 4 21 C4 18.58249691 4.15002908 16.37788331 4.4375 13.98828125 C4.52773438 13.23095703 4.61796875 12.47363281 4.7109375 11.69335938 C4.85402344 10.51483398 4.85402344 10.51483398 5 9.3125 C5.09539062 8.51521484 5.19078125 7.71792969 5.2890625 6.89648438 C5.52447366 4.93080116 5.76203026 2.9653751 6 1 C4.02 1 2.04 1 0 1 C0 0.67 0 0.34 0 0 Z " fill="#DCD9CD" transform="translate(384,688)"/>
<path d="M0 0 C0.33 0 0.66 0 1 0 C1 4.29 1 8.58 1 13 C0.34 13 -0.32 13 -1 13 C-0.88496731 15.5216376 -0.75825223 18.0418119 -0.625 20.5625 C-0.5940625 21.26697266 -0.563125 21.97144531 -0.53125 22.69726562 C-0.33386989 26.2665559 0.04506825 29.47805943 1.1015625 32.90234375 C2 36 2 36 1 38 C0.01 37.34 -0.98 36.68 -2 36 C-2.37231445 33.76025391 -2.37231445 33.76025391 -2.36328125 30.9765625 C-2.36392578 29.96013672 -2.36457031 28.94371094 -2.36523438 27.89648438 C-2.34783203 26.81689453 -2.33042969 25.73730469 -2.3125 24.625 C-2.30412109 23.53767578 -2.29574219 22.45035156 -2.28710938 21.33007812 C-2.17811362 14.05352146 -1.74150187 7.09040046 0 0 Z " fill="#192336" transform="translate(578,362)"/>
<path d="M0 0 C0.33 0.99 0.66 1.98 1 3 C2.32 2.67 3.64 2.34 5 2 C5.33 2.99 5.66 3.98 6 5 C5.34 5 4.68 5 4 5 C4 5.66 4 6.32 4 7 C3.34 7.66 2.68 8.32 2 9 C2.32198966 12.09926819 2.32198966 12.09926819 3 15 C5.64 14.67 8.28 14.34 11 14 C11 14.66 11 15.32 11 16 C7.04 16 3.08 16 -1 16 C-0.67 10.72 -0.34 5.44 0 0 Z " fill="#E0DDD3" transform="translate(849,272)"/>
<path d="M0 0 C0.33 0 0.66 0 1 0 C1.33 4.62 1.66 9.24 2 14 C12.23 14 22.46 14 33 14 C32.67 14.66 32.34 15.32 32 16 C21.77 15.67 11.54 15.34 1 15 C0.67 15.66 0.34 16.32 0 17 C-1.07957377 13.76127868 -1.13326784 11.33971795 -1.125 7.9375 C-1.12757813 6.87402344 -1.13015625 5.81054688 -1.1328125 4.71484375 C-1 2 -1 2 0 0 Z " fill="#0D0B12" transform="translate(721,195)"/>
<path d="M0 0 C1.98 0 3.96 0 6 0 C6 7.26 6 14.52 6 22 C3.59880941 18.39821412 3.56228678 15.49133631 3.375 11.3125 C3.33632813 10.61060547 3.29765625 9.90871094 3.2578125 9.18554688 C3.1637666 7.45745345 3.0808032 5.72876325 3 4 C2.67 4.33 2.34 4.66 2 5 C0 1.125 0 1.125 0 0 Z " fill="#E3E3D7" transform="translate(369,658)"/>
<path d="M0 0 C3.96 0.33 7.92 0.66 12 1 C12 1.33 12 1.66 12 2 C8.7 2 5.4 2 2 2 C2.14058476 4.45873768 2.28722999 6.91685175 2.4375 9.375 C2.47681641 10.07367188 2.51613281 10.77234375 2.55664062 11.4921875 C2.74280134 15.37360492 2.74280134 15.37360492 4 19 C2.68 19.33 1.36 19.66 0 20 C0 13.33333333 0 6.66666667 0 0 Z " fill="#C3C1BA" transform="translate(595,336)"/>
<path d="M0 0 C4.62 0 9.24 0 14 0 C14.1953125 9.9609375 14.1953125 9.9609375 14 13 C13.34 13.66 12.68 14.32 12 15 C12 10.71 12 6.42 12 2 C8.04 2 4.08 2 0 2 C0 1.34 0 0.68 0 0 Z " fill="#B2AEA2" transform="translate(408,705)"/>
<path d="M0 0 C0.33 0 0.66 0 1 0 C1.33 3.3 1.66 6.6 2 10 C3.98 10 5.96 10 8 10 C8.33 11.32 8.66 12.64 9 14 C5.7 14 2.4 14 -1 14 C-0.67 9.38 -0.34 4.76 0 0 Z " fill="#150B16" transform="translate(455,738)"/>
<path d="M0 0 C0.33 0 0.66 0 1 0 C1.74558682 8.66149795 2.39702691 17.32745081 3 26 C0.37684968 27.31157516 -1.23033436 26.89649988 -4.125 26.5625 C-5.03507813 26.46066406 -5.94515625 26.35882812 -6.8828125 26.25390625 C-7.58148437 26.17011719 -8.28015625 26.08632813 -9 26 C-9 25.67 -9 25.34 -9 25 C-6.03 25 -3.06 25 0 25 C0 16.75 0 8.5 0 0 Z " fill="#E3E7E5" transform="translate(833,561)"/>
<path d="M0 0 C2.64590014 -0.02684679 5.29153096 -0.04676357 7.9375 -0.0625 C8.69224609 -0.07087891 9.44699219 -0.07925781 10.22460938 -0.08789062 C12.14994313 -0.09652441 14.07535581 -0.05224333 16 0 C17 1 17 1 17.09765625 4.37890625 C17.09098369 5.77347077 17.07902532 7.16801743 17.0625 8.5625 C17.05798828 9.27341797 17.05347656 9.98433594 17.04882812 10.71679688 C17.03700864 12.47790013 17.01907263 14.23896036 17 16 C16.67 16 16.34 16 16 16 C16 11.38 16 6.76 16 2 C11.05 2.33 6.1 2.66 1 3 C0.67 2.01 0.34 1.02 0 0 Z " fill="#242128" transform="translate(452,272)"/>
<path d="M0 0 C0.33 0 0.66 0 1 0 C1 4.62 1 9.24 1 14 C1.66 13.67 2.32 13.34 3 13 C5.71760108 12.92818179 8.40859388 12.90700494 11.125 12.9375 C11.87910156 12.94201172 12.63320313 12.94652344 13.41015625 12.95117188 C15.27347127 12.96296501 17.13674555 12.98090058 19 13 C18.67 13.99 18.34 14.98 18 16 C18 15.34 18 14.68 18 14 C9.09 14.99 9.09 14.99 0 16 C-1.08489672 12.74530985 -1.13323992 10.29456791 -1.125 6.875 C-1.12757813 5.79992187 -1.13015625 4.72484375 -1.1328125 3.6171875 C-1 1 -1 1 0 0 Z " fill="#C0BEB5" transform="translate(357,644)"/>
<path d="M0 0 C3.63 0.33 7.26 0.66 11 1 C11 1.33 11 1.66 11 2 C9.865625 2.309375 8.73125 2.61875 7.5625 2.9375 C4.21224901 3.62924531 4.21224901 3.62924531 3 5 C2.92773498 6.85287502 2.9161878 8.70833878 2.9375 10.5625 C2.94652344 11.57441406 2.95554687 12.58632813 2.96484375 13.62890625 C2.97644531 14.41136719 2.98804688 15.19382812 3 16 C2.34 16 1.68 16 1 16 C0.67 10.72 0.34 5.44 0 0 Z " fill="#D6DAD9" transform="translate(626,688)"/>
<path d="M0 0 C0.33 0 0.66 0 1 0 C1.144375 0.78375 1.28875 1.5675 1.4375 2.375 C1.87798925 4.96421018 1.87798925 4.96421018 3 7 C1.02 7.99 -0.96 8.98 -3 10 C-3.33 9.01 -3.66 8.02 -4 7 C-7.96 7 -11.92 7 -16 7 C-16 6.34 -16 5.68 -16 5 C-10.72 5 -5.44 5 0 5 C0 3.35 0 1.7 0 0 Z " fill="#171314" transform="translate(548,380)"/>
<path d="M0 0 C7.59 0 15.18 0 23 0 C23 0.33 23 0.66 23 1 C16.4 1.33 9.8 1.66 3 2 C3 5.96 3 9.92 3 14 C2.01 14.495 2.01 14.495 1 15 C0.12598465 9.75590789 0 5.51738922 0 0 Z " fill="#2E2B31" transform="translate(295,192)"/>
<path d="M0 0 C4.95 0 9.9 0 15 0 C15 0.33 15 0.66 15 1 C9.06 1.495 9.06 1.495 3 2 C2.67 6.62 2.34 11.24 2 16 C1.34 16 0.68 16 0 16 C0 10.72 0 5.44 0 0 Z " fill="#120E11" transform="translate(97,353)"/>
<path d="M0 0 C1.65 0 3.3 0 5 0 C4.67 0.66 4.34 1.32 4 2 C3.07719042 4.76842873 2.91629327 6.28943441 3 9.125 C3 13 3 13 1 16 C0 15 0 15 -0.09765625 11.62109375 C-0.09098369 10.22652923 -0.07902532 8.83198257 -0.0625 7.4375 C-0.05798828 6.72658203 -0.05347656 6.01566406 -0.04882812 5.28320312 C-0.03700864 3.52209987 -0.01907263 1.76103964 0 0 Z " fill="#D4D1D3" transform="translate(848,480)"/>
<path d="M0 0 C0.33 0 0.66 0 1 0 C1 5.61 1 11.22 1 17 C-0.60875 17.020625 -2.2175 17.04125 -3.875 17.0625 C-5.23238281 17.07990234 -5.23238281 17.07990234 -6.6171875 17.09765625 C-9 17 -9 17 -11 16 C-11 15.34 -11 14.68 -11 14 C-10.36191406 14.01160156 -9.72382812 14.02320313 -9.06640625 14.03515625 C-8.24011719 14.04417969 -7.41382813 14.05320312 -6.5625 14.0625 C-5.32693359 14.07990234 -5.32693359 14.07990234 -4.06640625 14.09765625 C-2.00836062 14.23267348 -2.00836062 14.23267348 -1 13 C-0.92760255 10.76925356 -1.00350207 8.55507809 -1.0625 6.32421875 C-1.00156103 4.05805083 -0.63512433 2.16835415 0 0 Z " fill="#E0E1D6" transform="translate(659,400)"/>
<path d="M0 0 C1.32 0.33 2.64 0.66 4 1 C4.02703381 2.93742341 4.04641125 4.87495479 4.0625 6.8125 C4.07410156 7.89144531 4.08570313 8.97039062 4.09765625 10.08203125 C4 13 4 13 3 16 C2.34 16 1.68 16 1 16 C0.67 10.72 0.34 5.44 0 0 Z " fill="#CFD0CF" transform="translate(468,272)"/>
<path d="M0 0 C0.33 0 0.66 0 1 0 C1 3.3 1 6.6 1 10 C1.66 10 2.32 10 3 10 C3.33 9.01 3.66 8.02 4 7 C5.24546405 9.49092811 4.7767578 10.41080733 4 13 C2.68 13.33 1.36 13.66 0 14 C0 13.34 0 12.68 0 12 C-4.95 12 -9.9 12 -15 12 C-15 11.67 -15 11.34 -15 11 C-10.05 11 -5.1 11 0 11 C0 7.37 0 3.74 0 0 Z " fill="#D6D6CD" transform="translate(626,694)"/>
<path d="M0 0 C0.66 0.33 1.32 0.66 2 1 C2 3.31 2 5.62 2 8 C2.66 8.33 3.32 8.66 4 9 C3.46930939 12.82097239 2.50298434 15.06171403 0 18 C-0.99 17.67 -1.98 17.34 -3 17 C-2.01 16.67 -1.02 16.34 0 16 C-0.08378906 15.26394531 -0.16757812 14.52789062 -0.25390625 13.76953125 C-0.35574219 12.79371094 -0.45757813 11.81789063 -0.5625 10.8125 C-0.71912109 9.36810547 -0.71912109 9.36810547 -0.87890625 7.89453125 C-0.99758751 5.05766623 -0.67765639 2.74576329 0 0 Z " fill="#DEDEE0" transform="translate(564,401)"/>
<path d="M0 0 C0.80824219 0.10183594 1.61648438 0.20367187 2.44921875 0.30859375 C3.06410156 0.39238281 3.67898438 0.47617188 4.3125 0.5625 C4.3125 0.8925 4.3125 1.2225 4.3125 1.5625 C1.3425 1.5625 -1.6275 1.5625 -4.6875 1.5625 C-4.6875 6.5125 -4.6875 11.4625 -4.6875 16.5625 C-5.0175 16.5625 -5.3475 16.5625 -5.6875 16.5625 C-5.74808594 15.99402344 -5.80867187 15.42554688 -5.87109375 14.83984375 C-6.38926573 10.06468963 -6.97993859 5.3132695 -7.6875 0.5625 C-4.59271121 -0.46909626 -3.16118607 -0.41232862 0 0 Z " fill="#E0E0D4" transform="translate(583.6875,222.4375)"/>
<path d="M0 0 C0.33 0 0.66 0 1 0 C1.85214779 7.06888778 2.12746455 14.0088832 2.0625 21.125 C2.05798828 22.08148438 2.05347656 23.03796875 2.04882812 24.0234375 C2.03720017 26.34902758 2.02086102 28.6744776 2 31 C1.67 31 1.34 31 1 31 C0.67 26.05 0.34 21.1 0 16 C-0.33 16 -0.66 16 -1 16 C-0.67 10.72 -0.34 5.44 0 0 Z " fill="#BDBCB4" transform="translate(405,304)"/>
<path d="M0 0 C0.33 0 0.66 0 1 0 C1.125 2.375 1.125 2.375 1 5 C-1 7 -1 7 -4 9 C-4.33 8.34 -4.66 7.68 -5 7 C-7.30965848 5.94647157 -9.6429774 4.94280904 -12 4 C-12 3.67 -12 3.34 -12 3 C-8.04 3 -4.08 3 0 3 C0 2.01 0 1.02 0 0 Z " fill="#CAC9B6" transform="translate(644,685)"/>
<path d="M0 0 C0.80967438 2.91482778 1.21845993 4.46113217 0.0625 7.3125 C-0.4634375 8.1478125 -0.4634375 8.1478125 -1 9 C-1.33 9 -1.66 9 -2 9 C-2 6.36 -2 3.72 -2 1 C-7.61 1 -13.22 1 -19 1 C-19 0.67 -19 0.34 -19 0 C-16.39619004 -0.19476139 -13.79224467 -0.38108614 -11.1875 -0.5625 C-10.44951172 -0.61857422 -9.71152344 -0.67464844 -8.95117188 -0.73242188 C-5.63211484 -0.95769724 -3.18767436 -1.06255812 0 0 Z " fill="#E3E3D8" transform="translate(963,415)"/>
<path d="M0 0 C0.99 0.99 1.98 1.98 3 3 C2.67 3.66 2.34 4.32 2 5 C1.84588894 7.0307477 1.75017547 9.06606421 1.68359375 11.1015625 C1.64169922 12.31328125 1.59980469 13.525 1.55664062 14.7734375 C1.51732422 16.04445313 1.47800781 17.31546875 1.4375 18.625 C1.37272461 20.543125 1.37272461 20.543125 1.30664062 22.5 C1.20030114 25.66655348 1.09827167 28.83318753 1 32 C0.67 32 0.34 32 0 32 C0 21.44 0 10.88 0 0 Z " fill="#0B0612" transform="translate(501,812)"/>
<path d="M0 0 C1.98 0 3.96 0 6 0 C5.525625 0.474375 5.05125 0.94875 4.5625 1.4375 C2.59846445 4.65851829 2.51221251 7.26206274 2.30859375 10.9765625 C2 13 2 13 0 15 C0 10.05 0 5.1 0 0 Z " fill="#0E0A0F" transform="translate(677,385)"/>
<path d="M0 0 C1.58206057 0.00667536 3.16410534 0.0186375 4.74609375 0.03515625 C5.55240234 0.03966797 6.35871094 0.04417969 7.18945312 0.04882812 C9.18753131 0.06065107 11.18557158 0.07858711 13.18359375 0.09765625 C12.85359375 0.75765625 12.52359375 1.41765625 12.18359375 2.09765625 C11.54292969 2.06285156 10.90226562 2.02804687 10.2421875 1.9921875 C4.34994609 1.80778054 0.4169482 2.36721045 -4.81640625 5.09765625 C-4.81640625 0.12324479 -4.81640625 0.12324479 0 0 Z " fill="#0F0C10" transform="translate(471.81640625,288.90234375)"/>
<path d="M0 0 C1.485 0.99 1.485 0.99 3 2 C2.34 2 1.68 2 1 2 C1.14095064 3.6254308 1.28792087 5.25034051 1.4375 6.875 C1.55931641 8.23238281 1.55931641 8.23238281 1.68359375 9.6171875 C1.86989285 12.01110861 1.86989285 12.01110861 3 14 C5.35599235 14.46751788 5.35599235 14.46751788 8.0625 14.625 C9.44115234 14.73714844 9.44115234 14.73714844 10.84765625 14.8515625 C11.55792969 14.90054687 12.26820313 14.94953125 13 15 C13 15.33 13 15.66 13 16 C8.38 16 3.76 16 -1 16 C-0.67 10.72 -0.34 5.44 0 0 Z " fill="#E5E2D5" transform="translate(865,288)"/>
<path d="M0 0 C0.66 0.33 1.32 0.66 2 1 C1.835 1.86625 1.67 2.7325 1.5 3.625 C0.72184489 8.72507068 1.07214793 13.84974123 1.2578125 18.98828125 C1.17273438 19.98214844 1.08765625 20.97601562 1 22 C0.01 22.66 -0.98 23.32 -2 24 C-1.86076462 20.74968216 -1.71245815 17.49983939 -1.5625 14.25 C-1.52318359 13.32960938 -1.48386719 12.40921875 -1.44335938 11.4609375 C-1.40146484 10.57148437 -1.35957031 9.68203125 -1.31640625 8.765625 C-1.27974854 7.94868164 -1.24309082 7.13173828 -1.20532227 6.29003906 C-1.00865725 4.0965577 -0.59699406 2.11603587 0 0 Z " fill="#DFDED7" transform="translate(646,660)"/>
<path d="M0 0 C2.64 0 5.28 0 8 0 C7.67 0.66 7.34 1.32 7 2 C4.9375 2.625 4.9375 2.625 3 3 C1.9551242 7.62730711 1.48243721 12.28853878 1 17 C0.67 17 0.34 17 0 17 C0 11.39 0 5.78 0 0 Z " fill="#E5E5DD" transform="translate(547,416)"/>
<path d="M0 0 C0.33 0 0.66 0 1 0 C1 5.94 1 11.88 1 18 C-0.32 17.34 -1.64 16.68 -3 16 C-2.7834375 15.00419922 -2.7834375 15.00419922 -2.5625 13.98828125 C-2.376875 13.10527344 -2.19125 12.22226562 -2 11.3125 C-1.814375 10.44238281 -1.62875 9.57226562 -1.4375 8.67578125 C-0.92551761 5.99634567 -0.92551761 5.99634567 -1 3.23046875 C-1 1 -1 1 0 0 Z " fill="#E3E1D4" transform="translate(453,400)"/>
<path d="M0 0 C0.66 0 1.32 0 2 0 C2 4.95 2 9.9 2 15 C-2.62 15 -7.24 15 -12 15 C-12 14.67 -12 14.34 -12 14 C-7.71 14 -3.42 14 1 14 C0.67039784 8.98464948 0.67039784 8.98464948 -2 5 C-1.34 5 -0.68 5 0 5 C0 3.35 0 1.7 0 0 Z " fill="#E8E8DC" transform="translate(484,370)"/>
<path d="M0 0 C5.61 0 11.22 0 17 0 C17 0.33 17 0.66 17 1 C11.06 1.495 11.06 1.495 5 2 C4.01 4.31 3.02 6.62 2 9 C1.67 9 1.34 9 1 9 C0.67 6.03 0.34 3.06 0 0 Z " fill="#C6C5C8" transform="translate(469,369)"/>
<path d="M0 0 C4.95 0 9.9 0 15 0 C15 2.97 15 5.94 15 9 C14.67 9 14.34 9 14 9 C14 6.69 14 4.38 14 2 C10.7 1.67 7.4 1.34 4 1 C4 1.66 4 2.32 4 3 C2.68 3.33 1.36 3.66 0 4 C0 2.68 0 1.36 0 0 Z " fill="#08070E" transform="translate(596,193)"/>
<path d="M0 0 C0.66 0 1.32 0 2 0 C2.9360342 3.79267192 2.98276252 6.93674565 2.5625 10.8125 C2.40974609 12.27623047 2.40974609 12.27623047 2.25390625 13.76953125 C2.17011719 14.50558594 2.08632813 15.24164063 2 16 C1.34 16 0.68 16 0 16 C0 10.72 0 5.44 0 0 Z " fill="#120B10" transform="translate(944,481)"/>
<path d="M0 0 C3.96 0 7.92 0 12 0 C12 2.31 12 4.62 12 7 C11.01 6.67 10.02 6.34 9 6 C9 5.01 9 4.02 9 3 C7.700625 2.87625 6.40125 2.7525 5.0625 2.625 C2.84765625 2.4140625 2.84765625 2.4140625 1 2 C0.67 1.34 0.34 0.68 0 0 Z " fill="#DEDECD" transform="translate(535,369)"/>
<path d="M0 0 C0.99 0.33 1.98 0.66 3 1 C3 2.32 3 3.64 3 5 C2.34 5.66 1.68 6.32 1 7 C0.53603307 9.89223503 0.53603307 9.89223503 0.375 13.125 C0.30023438 14.22070312 0.22546875 15.31640625 0.1484375 16.4453125 C0.07496094 17.70988281 0.07496094 17.70988281 0 19 C-0.33 19 -0.66 19 -1 19 C-1.02683987 16.02077407 -1.04676037 13.04178705 -1.0625 10.0625 C-1.07087891 9.21236328 -1.07925781 8.36222656 -1.08789062 7.48632812 C-1.09111328 6.67744141 -1.09433594 5.86855469 -1.09765625 5.03515625 C-1.10289307 4.2862915 -1.10812988 3.53742676 -1.11352539 2.76586914 C-1 1 -1 1 0 0 Z " fill="#322A2E" transform="translate(82,370)"/>
<path d="M0 0 C0.33 0 0.66 0 1 0 C1 4.95 1 9.9 1 15 C0.34 15 -0.32 15 -1 15 C-1.22304441 13.25181409 -1.4278645 11.50129677 -1.625 9.75 C-1.74101563 8.77546875 -1.85703125 7.8009375 -1.9765625 6.796875 C-2.00112537 3.86570607 -1.5312717 2.45471036 0 0 Z " fill="#44434D" transform="translate(611,320)"/>
<path d="M0 0 C3.96 0.33 7.92 0.66 12 1 C12 1.33 12 1.66 12 2 C9.36 2 6.72 2 4 2 C3.34 4.64 2.68 7.28 2 10 C1.34 10 0.68 10 0 10 C0 6.7 0 3.4 0 0 Z " fill="#0F0B0F" transform="translate(67,400)"/>
<path d="M0 0 C0.33 0 0.66 0 1 0 C1 4.62 1 9.24 1 14 C-4.28 14 -9.56 14 -15 14 C-15 13.67 -15 13.34 -15 13 C-14.07316406 12.93941406 -13.14632812 12.87882812 -12.19140625 12.81640625 C-10.99386719 12.73261719 -9.79632812 12.64882813 -8.5625 12.5625 C-6.77005859 12.44068359 -6.77005859 12.44068359 -4.94140625 12.31640625 C-2.11429756 12.32343886 -2.11429756 12.32343886 -1 11 C-0.76636119 9.15108054 -0.58696365 7.29511969 -0.4375 5.4375 C-0.35371094 4.42558594 -0.26992188 3.41367187 -0.18359375 2.37109375 C-0.12300781 1.58863281 -0.06242188 0.80617188 0 0 Z " fill="#E7E7DA" transform="translate(675,386)"/>
<path d="M0 0 C1.32 0.33 2.64 0.66 4 1 C3.690625 1.78375 3.38125 2.5675 3.0625 3.375 C1.73664193 7.89851578 1.35188915 12.31431814 1 17 C0.67 17 0.34 17 0 17 C0 11.39 0 5.78 0 0 Z " fill="#E2E2DB" transform="translate(612,319)"/>
<path d="M0 0 C1.98 0 3.96 0 6 0 C5.2884375 0.495 5.2884375 0.495 4.5625 1 C2.78777274 3.27165089 2.70947493 4.31459241 2.4375 7.125 C2.2209375 9.043125 2.2209375 9.043125 2 11 C1.01 11.495 1.01 11.495 0 12 C0 8.04 0 4.08 0 0 Z " fill="#E0E3E1" transform="translate(580,720)"/>
<path d="M0 0 C5.61 0 11.22 0 17 0 C16.67 1.65 16.34 3.3 16 5 C14.68 4.67 13.36 4.34 12 4 C12 3.34 12 2.68 12 2 C8.04 1.67 4.08 1.34 0 1 C0 0.67 0 0.34 0 0 Z " fill="#E0DDCA" transform="translate(84,465)"/>
<path d="M0 0 C2.12493141 -0.02693575 4.24995912 -0.04636628 6.375 -0.0625 C7.55835938 -0.07410156 8.74171875 -0.08570313 9.9609375 -0.09765625 C13 0 13 0 15 1 C14.67 2.65 14.34 4.3 14 6 C12 4.625 12 4.625 10 3 C10 2.34 10 1.68 10 1 C6.7 1 3.4 1 0 1 C0 0.67 0 0.34 0 0 Z " fill="#0C0A11" transform="translate(583,225)"/>
<path d="M0 0 C0.35729936 1.32711192 0.68325425 2.66262906 1 4 C1.226875 4.928125 1.45375 5.85625 1.6875 6.8125 C2.06255938 10.63810565 1.22810993 13.38791198 0 17 C-0.33 17 -0.66 17 -1 17 C-1.02684679 14.35409986 -1.04676357 11.70846904 -1.0625 9.0625 C-1.07087891 8.30775391 -1.07925781 7.55300781 -1.08789062 6.77539062 C-1.09652441 4.85005687 -1.05224333 2.92464419 -1 1 C-0.67 0.67 -0.34 0.34 0 0 Z " fill="#E0E0DB" transform="translate(977,505)"/>
<path d="M0 0 C0.33 0 0.66 0 1 0 C1.33 4.62 1.66 9.24 2 14 C1.01 14.66 0.02 15.32 -1 16 C-0.67 10.72 -0.34 5.44 0 0 Z " fill="#DBD9CE" transform="translate(581,384)"/>
<path d="M0 0 C2.64 0 5.28 0 8 0 C8 0.99 8 1.98 8 3 C6.02 3.99 4.04 4.98 2 6 C2.33 4.35 2.66 2.7 3 1 C2.01 0.67 1.02 0.34 0 0 Z " fill="#16131B" transform="translate(287,210)"/>
<path d="M0 0 C2.475 0.495 2.475 0.495 5 1 C5.66 0.67 6.32 0.34 7 0 C7 0.99 7 1.98 7 3 C6.0409375 3.680625 6.0409375 3.680625 5.0625 4.375 C2.75235447 5.8662773 2.75235447 5.8662773 2.25 8.6875 C2.1675 9.450625 2.085 10.21375 2 11 C1.67 11 1.34 11 1 11 C0.67 7.37 0.34 3.74 0 0 Z " fill="#DFDBCE" transform="translate(880,304)"/>
<path d="M0 0 C0.66 0.33 1.32 0.66 2 1 C2.29296875 7.0546875 2.29296875 7.0546875 2 9 C1.01 9.66 0.02 10.32 -1 11 C-1.02688151 9.35425434 -1.04634123 7.70838587 -1.0625 6.0625 C-1.07410156 5.14597656 -1.08570313 4.22945313 -1.09765625 3.28515625 C-1 1 -1 1 0 0 Z " fill="#1A131A" transform="translate(930,465)"/>
<path d="M0 0 C0.66 0 1.32 0 2 0 C2 1.98 2 3.96 2 6 C1.34 6 0.68 6 0 6 C-0.33 7.65 -0.66 9.3 -1 11 C-1.33 11 -1.66 11 -2 11 C-2 8.03 -2 5.06 -2 2 C-1.34 2 -0.68 2 0 2 C0 1.34 0 0.68 0 0 Z " fill="#C7C4C1" transform="translate(866,468)"/>
<path d="M0 0 C0.33 0 0.66 0 1 0 C1.33 6.6 1.66 13.2 2 20 C1.34 20 0.68 20 0 20 C-1.19799449 15.85340627 -0.8896192 12.00630953 -0.5625 7.75 C-0.51029297 7.00492188 -0.45808594 6.25984375 -0.40429688 5.4921875 C-0.2751783 3.66105139 -0.13834886 1.83046187 0 0 Z " fill="#3D4250" transform="translate(641,667)"/>
<path d="M0 0 C-0.33 1.65 -0.66 3.3 -1 5 C-1.99 5 -2.98 5 -4 5 C-4.99 5.495 -4.99 5.495 -6 6 C-6.66 5.34 -7.32 4.68 -8 4 C-7.34 4 -6.68 4 -6 4 C-5.67 3.01 -5.34 2.02 -5 1 C-2 0 -2 0 0 0 Z " fill="#161116" transform="translate(695,384)"/>
<path d="M0 0 C1.65 0 3.3 0 5 0 C4.51917969 0.55171875 4.03835937 1.1034375 3.54296875 1.671875 C1.76045839 4.36143493 1.52248591 6.05821418 1.3125 9.25 C1.21388672 10.58804687 1.21388672 10.58804687 1.11328125 11.953125 C1.05720703 12.96632813 1.05720703 12.96632813 1 14 C0.34 13.67 -0.32 13.34 -1 13 C-0.67 8.71 -0.34 4.42 0 0 Z " fill="#373031" transform="translate(137,307)"/>
<path d="M0 0 C0.33 0 0.66 0 1 0 C1.33 2.97 1.66 5.94 2 9 C-0.62315032 10.31157516 -2.23033436 9.89649988 -5.125 9.5625 C-6.49011719 9.40974609 -6.49011719 9.40974609 -7.8828125 9.25390625 C-8.58148437 9.17011719 -9.28015625 9.08632813 -10 9 C-10 8.67 -10 8.34 -10 8 C-6.7 8 -3.4 8 0 8 C0 5.36 0 2.72 0 0 Z " fill="#DEDDD2" transform="translate(834,578)"/>
<path d="M0 0 C6.0546875 -0.1953125 6.0546875 -0.1953125 8 0 C8.66 0.66 9.32 1.32 10 2 C8.68 3.32 7.36 4.64 6 6 C5.67 5.01 5.34 4.02 5 3 C2.49552484 1.78130071 2.49552484 1.78130071 0 1 C0 0.67 0 0.34 0 0 Z " fill="#DEDDD2" transform="translate(930,481)"/>
<path d="M0 0 C1.65 0 3.3 0 5 0 C5.33 1.32 5.66 2.64 6 4 C4.35 4.66 2.7 5.32 1 6 C1.33 4.35 1.66 2.7 2 1 C1.34 0.67 0.68 0.34 0 0 Z " fill="#16111C" transform="translate(432,226)"/>
<path d="M0 0 C0 0.66 0 1.32 0 2 C-3.3 2 -6.6 2 -10 2 C-6.64608848 -1.35391152 -4.35183427 -1.05855428 0 0 Z " fill="#C4C5C1" transform="translate(328,191)"/>
<path d="M0 0 C0.33 0 0.66 0 1 0 C1 4.95 1 9.9 1 15 C0.67 15 0.34 15 0 15 C-0.06058594 14.38511719 -0.12117188 13.77023437 -0.18359375 13.13671875 C-0.26738281 12.32847656 -0.35117187 11.52023437 -0.4375 10.6875 C-0.51871094 9.88699219 -0.59992188 9.08648438 -0.68359375 8.26171875 C-0.95265693 5.83912821 -0.95265693 5.83912821 -2 3 C-1.34 2.01 -0.68 1.02 0 0 Z " fill="#DCDAC9" transform="translate(341,626)"/>
<path d="M0 0 C2.97 0 5.94 0 9 0 C8.67 1.65 8.34 3.3 8 5 C5.36 3.68 2.72 2.36 0 1 C0 0.67 0 0.34 0 0 Z " fill="#CBC9C3" transform="translate(935,480)"/>
<path d="M0 0 C0.721875 0.474375 1.44375 0.94875 2.1875 1.4375 C4.89475226 2.94152903 6.96194275 3.56599182 10 4 C7 6 7 6 4.5 5.75 C2 5 2 5 -1 3 C-0.67 2.01 -0.34 1.02 0 0 Z " fill="#110F16" transform="translate(561,446)"/>
<path d="M0 0 C1.32 0.33 2.64 0.66 4 1 C4.33 2.32 4.66 3.64 5 5 C3.35 5.33 1.7 5.66 0 6 C0 4.02 0 2.04 0 0 Z " fill="#D9D9C6" transform="translate(833,257)"/>
<path d="M0 0 C3.63 0.33 7.26 0.66 11 1 C11 1.33 11 1.66 11 2 C8.03 2 5.06 2 2 2 C1.67 2.66 1.34 3.32 1 4 C0.67 2.68 0.34 1.36 0 0 Z " fill="#E3E3DA" transform="translate(626,688)"/>
<path d="M0 0 C1.98 0 3.96 0 6 0 C6 1.65 6 3.3 6 5 C4.02 4.34 2.04 3.68 0 3 C0 2.01 0 1.02 0 0 Z " fill="#DDDCCB" transform="translate(416,338)"/>
<path d="M0 0 C1.485 0.99 1.485 0.99 3 2 C3 3.32 3 4.64 3 6 C2.34 6 1.68 6 1 6 C1 8.31 1 10.62 1 13 C0.67 13 0.34 13 0 13 C0 8.71 0 4.42 0 0 Z " fill="#1A121C" transform="translate(549,274)"/>
<path d="M0 0 C2.64 0 5.28 0 8 0 C7.01 0.33 6.02 0.66 5 1 C5 1.66 5 2.32 5 3 C3.35 3.33 1.7 3.66 0 4 C0 2.68 0 1.36 0 0 Z " fill="#DAD7C6" transform="translate(833,497)"/>
<path d="M0 0 C0.33 0 0.66 0 1 0 C1 3.96 1 7.92 1 12 C0.01 12 -0.98 12 -2 12 C-1.34 8.04 -0.68 4.08 0 0 Z " fill="#E0DFD0" transform="translate(261,212)"/>
<path d="M0 0 C0.66 0 1.32 0 2 0 C0.52307692 5.66153846 0.52307692 5.66153846 -2.125 7.375 C-3.053125 7.684375 -3.053125 7.684375 -4 8 C-4.33 7.34 -4.66 6.68 -5 6 C-4.01 5.67 -3.02 5.34 -2 5 C-0.78130071 2.49552484 -0.78130071 2.49552484 0 0 Z " fill="#DBDCD2" transform="translate(566,411)"/>
<path d="M0 0 C1.98 0.495 1.98 0.495 4 1 C3.625 2.9375 3.625 2.9375 3 5 C2.01 5.495 2.01 5.495 1 6 C0.34 5.34 -0.32 4.68 -1 4 C-0.625 1.875 -0.625 1.875 0 0 Z " fill="#BEC0B0" transform="translate(193,257)"/>
<path d="M0 0 C2.37783838 2.37783838 2.59009208 3.72073665 3 7 C2.67 7.66 2.34 8.32 2 9 C1.34 9 0.68 9 0 9 C0 6.03 0 3.06 0 0 Z " fill="#433C40" transform="translate(232,232)"/>
</svg>
